<?xml version="1.0" encoding="utf-8"?>
<!-- Generator: Adobe Illustrator 21.0.2, SVG Export Plug-In . SVG Version: 6.00 Build 0)  -->
<svg version="1.1" id="Calque_1" xmlns="http://www.w3.org/2000/svg" xmlns:xlink="http://www.w3.org/1999/xlink" x="0px" y="0px"
	 viewBox="0 0 330 212" style="enable-background:new 0 0 330 212;" xml:space="preserve">
<style type="text/css">
	.st0{fill:#0D0802;}
</style>
<g>
	<g>
		<path class="st0" d="M116.7,152.3l-35.4,0l0-33l20.1,0c-0.7-4-1-7.9-1-12c0-4.5,0.4-9,1.2-13l-20.3,0l0-32l35,0
			c8.6-11,20.2-18.6,33.4-22.8c-0.2-0.2-0.4-0.5-0.6-0.7c-1.1-1.1-2.3-1.6-3.8-1.6L59,37.4c-1.5,0-2.9,0.5-4,1.6
			c-1.1,1.1-1.8,2.3-1.8,3.8l0.2,129.4c0,1.5,0.7,2.7,1.8,3.8c1.1,1.1,2.5,1.6,4,1.6l87.9-0.1c1.5,0,2.7-0.5,3.8-1.6
			c0.2-0.2,0.4-0.4,0.5-0.7C137.7,171.1,125.6,163.3,116.7,152.3z"/>
		<path class="st0" d="M278.6,163.8c3.6-4,6.3-8.5,8.2-13.5c1.9-5,2.8-10,2.8-15.1c0-7.9-1.8-14.4-5.2-19.5
			c-3.5-5.1-7.3-9.1-11.4-11.9c0.9-0.5,2.2-1.5,3.7-3c1.5-1.5,3.1-3.3,4.6-5.5c1.5-2.2,2.8-4.9,3.9-8c1.1-3.1,1.6-6.7,1.6-10.7
			c0-4-0.8-8.3-2.3-12.9c-1.5-4.6-4.1-8.9-7.5-12.8c-3.5-3.9-8.1-7.1-13.8-9.7c-5.7-2.6-12.9-3.8-21.4-3.8l-58.8,0.1
			c17.3,3,32.5,12,43.2,25l13.7,0c6.9,0,12,1.3,15.2,3.8c3.2,2.6,4.8,6.4,4.8,11.5c0,5.1-1.6,8.9-4.8,11.5
			c-3.1,2.5-7.8,3.9-14.3,4.1c0.9,4.5,1.4,9.2,1.4,14c0,3.7-0.3,7.1-0.8,11.1l0.1,0c7.1,0,12.4,1.5,15.9,4.7
			c3.5,3.2,5.3,7.3,5.3,12.4c0,5.1-1.7,9.1-5.1,12.3c-3.4,3.1-8.8,4.7-16.1,4.7l-15.6,0c-10.9,13-26.6,22.3-44.3,24.9
			c0.4,0.1,0.8,0.1,1.3,0.1l63.7-0.1c7.1,0,13.3-1.2,18.7-3.7C270.5,171,275,167.8,278.6,163.8z"/>
	</g>
	<path class="st0" d="M163.9,158.3l-28.5,10.4c12.1,7.3,26,10.5,40.3,9.6c0.3-1.1,0.2-2.2-0.2-3.3l-4.9-13.4
		c-0.5-1.4-1.3-2.4-2.7-3.1C166.6,157.9,165.3,157.8,163.9,158.3z"/>
	<path class="st0" d="M149.9,126.5c0.6-1.4,0.6-2.8,0.1-4.2l-4.9-13.4c-0.5-1.4-1.3-2.3-2.7-3c-1.4-0.6-2.6-0.6-4-0.1l-37.1,13.5
		c0.6,4,1.8,8.5,3.3,12.6c1.4,3.9,3.1,7.4,5.1,10.9l37.3-13.5C148.4,128.9,149.2,127.9,149.9,126.5z"/>
	<path class="st0" d="M104.1,84.4L131.2,74c1.4-0.5,2.5-1.6,3.1-3c0.6-1.4,0.8-2.9,0.3-4.2l-5.1-13.3c-0.4-1.1-1.3-1.8-2.2-2.4
		C116.5,59.8,108.2,71.1,104.1,84.4z"/>
	<path class="st0" d="M238.3,130.5l-20.1,7.7l-12.1-31.8l34.6-13.2c-0.9-3.9-1.8-7.2-3.2-10.7c-1.7-4.5-3.8-8.6-6.3-12.6
		c-0.3,0.1-0.5,0.3-0.8,0.4L197.2,83l-11-29l20.4-7.8c-14.6-8.4-32-11.4-49.2-8l-0.2,0.1c-1.4,0.5-2.4,1.4-3,2.8
		c-0.6,1.4-0.7,2.7-0.2,4.1l46,120.9c0.5,1.4,1.5,2.4,2.9,3c1,0.4,1.9,0.5,2.9,0.4C221.4,160.9,232.7,146.6,238.3,130.5z"/>
	<polygon class="st0" points="200.7,48.5 209.4,45.3 193.6,37.2 177.3,37.2 	"/>
</g>
</svg>
